<svg width="169" height="24" viewBox="0 0 169 24" fill="none" xmlns="http://www.w3.org/2000/svg">
<g clip-path="url(#clip0_2005_2021)">
<path d="M23.5 2.9998C22.5424 3.67528 21.4821 4.19191 20.36 4.5298C19.7577 3.83731 18.9573 3.34649 18.067 3.12373C17.1767 2.90096 16.2395 2.957 15.3821 3.28426C14.5247 3.61151 13.7884 4.1942 13.273 4.95352C12.7575 5.71283 12.4877 6.61214 12.5 7.5298V8.5298C10.7426 8.57537 9.00127 8.18561 7.43101 7.39525C5.86074 6.60488 4.51032 5.43844 3.5 3.9998C3.5 3.9998 -0.5 12.9998 8.5 16.9998C6.44053 18.3978 3.98716 19.0987 1.5 18.9998C10.5 23.9998 21.5 18.9998 21.5 7.4998C21.4991 7.22126 21.4723 6.9434 21.42 6.6698C22.4406 5.6633 23.1608 4.39251 23.5 2.9998V2.9998Z" stroke="white" stroke-width="2" stroke-linecap="round" stroke-linejoin="round"/>
</g>
<path d="M66.5 2H63.5C62.1739 2 60.9021 2.52678 59.9645 3.46447C59.0268 4.40215 58.5 5.67392 58.5 7V10H55.5V14H58.5V22H62.5V14H65.5L66.5 10H62.5V7C62.5 6.73478 62.6054 6.48043 62.7929 6.29289C62.9804 6.10536 63.2348 6 63.5 6H66.5V2Z" stroke="white" stroke-width="2" stroke-linecap="round" stroke-linejoin="round"/>
<path d="M112.5 8C114.091 8 115.617 8.63214 116.743 9.75736C117.868 10.8826 118.5 12.4087 118.5 14V21H114.5V14C114.5 13.4696 114.289 12.9609 113.914 12.5858C113.539 12.2107 113.03 12 112.5 12C111.97 12 111.461 12.2107 111.086 12.5858C110.711 12.9609 110.5 13.4696 110.5 14V21H106.5V14C106.5 12.4087 107.132 10.8826 108.257 9.75736C109.383 8.63214 110.909 8 112.5 8V8Z" stroke="white" stroke-width="2" stroke-linecap="round" stroke-linejoin="round"/>
<path d="M102.5 9H98.5V21H102.5V9Z" stroke="white" stroke-width="2" stroke-linecap="round" stroke-linejoin="round"/>
<path d="M100.5 6C101.605 6 102.5 5.10457 102.5 4C102.5 2.89543 101.605 2 100.5 2C99.3954 2 98.5 2.89543 98.5 4C98.5 5.10457 99.3954 6 100.5 6Z" stroke="white" stroke-width="2" stroke-linecap="round" stroke-linejoin="round"/>
<path d="M148.5 4H164.5C165.6 4 166.5 4.9 166.5 6V18C166.5 19.1 165.6 20 164.5 20H148.5C147.4 20 146.5 19.1 146.5 18V6C146.5 4.9 147.4 4 148.5 4Z" stroke="white" stroke-width="2" stroke-linecap="round" stroke-linejoin="round"/>
<path d="M166.5 6L156.5 13L146.5 6" stroke="white" stroke-width="2" stroke-linecap="round" stroke-linejoin="round"/>
<defs>
<clipPath id="clip0_2005_2021">
<rect width="24" height="24" fill="white" transform="translate(0.5)"/>
</clipPath>
</defs>
</svg>
